<mxfile host="drawio-plugin" modified="2023-01-22T09:24:03.895Z" agent="5.0 (X11; Linux x86_64) AppleWebKit/537.36 (KHTML, like Gecko) Chrome/104.0.5112.102 Safari/537.36" etag="E2Bs5EUHA3p4BOqz3z7E" version="20.5.3" type="embed"><diagram id="CB3ILJBjrY4fO_ZfoTMc" name="Page-1"><mxGraphModel dx="813" dy="1557" grid="1" gridSize="10" guides="1" tooltips="1" connect="1" arrows="1" fold="1" page="1" pageScale="1" pageWidth="850" pageHeight="1100" math="0" shadow="0"><root><mxCell id="0"/><mxCell id="1" parent="0"/><mxCell id="QdE7p_diFOwgZNPdNC6Q-1" value="Student" style="swimlane;fontStyle=1;align=center;verticalAlign=top;childLayout=stackLayout;horizontal=1;startSize=26;horizontalStack=0;resizeParent=1;resizeParentMax=0;resizeLast=0;collapsible=1;marginBottom=0;" parent="1" vertex="1"><mxGeometry x="90" y="130" width="160" height="190" as="geometry"/></mxCell><mxCell id="QdE7p_diFOwgZNPdNC6Q-2" value="- roll_no : String&#10;- name : String&#10;- class : String&#10;- dob : date&#10;- is_hosteller : boolean &#10;- mail : String&#10;- mobile : long&#10;- events : Map&#10;" style="text;strokeColor=none;fillColor=none;align=left;verticalAlign=top;spacingLeft=4;spacingRight=4;overflow=hidden;rotatable=0;points=[[0,0.5],[1,0.5]];portConstraint=eastwest;" parent="QdE7p_diFOwgZNPdNC6Q-1" vertex="1"><mxGeometry y="26" width="160" height="124" as="geometry"/></mxCell><mxCell id="QdE7p_diFOwgZNPdNC6Q-3" value="" style="line;strokeWidth=1;fillColor=none;align=left;verticalAlign=middle;spacingTop=-1;spacingLeft=3;spacingRight=3;rotatable=0;labelPosition=right;points=[];portConstraint=eastwest;strokeColor=inherit;" parent="QdE7p_diFOwgZNPdNC6Q-1" vertex="1"><mxGeometry y="150" width="160" height="40" as="geometry"/></mxCell><mxCell id="QdE7p_diFOwgZNPdNC6Q-5" value="Staff" style="swimlane;fontStyle=1;align=center;verticalAlign=top;childLayout=stackLayout;horizontal=1;startSize=26;horizontalStack=0;resizeParent=1;resizeParentMax=0;resizeLast=0;collapsible=1;marginBottom=0;" parent="1" vertex="1"><mxGeometry x="300" y="-60" width="160" height="150" as="geometry"/></mxCell><mxCell id="QdE7p_diFOwgZNPdNC6Q-6" value="- staff_id : String&#10;- name : String&#10;- mail : String&#10;- mobile : long&#10;" style="text;strokeColor=none;fillColor=none;align=left;verticalAlign=top;spacingLeft=4;spacingRight=4;overflow=hidden;rotatable=0;points=[[0,0.5],[1,0.5]];portConstraint=eastwest;" parent="QdE7p_diFOwgZNPdNC6Q-5" vertex="1"><mxGeometry y="26" width="160" height="84" as="geometry"/></mxCell><mxCell id="QdE7p_diFOwgZNPdNC6Q-7" value="" style="line;strokeWidth=1;fillColor=none;align=left;verticalAlign=middle;spacingTop=-1;spacingLeft=3;spacingRight=3;rotatable=0;labelPosition=right;points=[];portConstraint=eastwest;strokeColor=inherit;" parent="QdE7p_diFOwgZNPdNC6Q-5" vertex="1"><mxGeometry y="110" width="160" height="40" as="geometry"/></mxCell><mxCell id="QdE7p_diFOwgZNPdNC6Q-8" value="Event" style="swimlane;fontStyle=1;align=center;verticalAlign=top;childLayout=stackLayout;horizontal=1;startSize=26;horizontalStack=0;resizeParent=1;resizeParentMax=0;resizeLast=0;collapsible=1;marginBottom=0;" parent="1" vertex="1"><mxGeometry x="520" y="130" width="160" height="180" as="geometry"/></mxCell><mxCell id="QdE7p_diFOwgZNPdNC6Q-9" value="- event_id : int&#10;- from_date : date&#10;- end_date : date&#10;- description : String&#10;" style="text;strokeColor=none;fillColor=none;align=left;verticalAlign=top;spacingLeft=4;spacingRight=4;overflow=hidden;rotatable=0;points=[[0,0.5],[1,0.5]];portConstraint=eastwest;" parent="QdE7p_diFOwgZNPdNC6Q-8" vertex="1"><mxGeometry y="26" width="160" height="114" as="geometry"/></mxCell><mxCell id="QdE7p_diFOwgZNPdNC6Q-10" value="" style="line;strokeWidth=1;fillColor=none;align=left;verticalAlign=middle;spacingTop=-1;spacingLeft=3;spacingRight=3;rotatable=0;labelPosition=right;points=[];portConstraint=eastwest;strokeColor=inherit;" parent="QdE7p_diFOwgZNPdNC6Q-8" vertex="1"><mxGeometry y="140" width="160" height="40" as="geometry"/></mxCell><mxCell id="QdE7p_diFOwgZNPdNC6Q-11" value="Teacher" style="swimlane;fontStyle=1;align=center;verticalAlign=top;childLayout=stackLayout;horizontal=1;startSize=26;horizontalStack=0;resizeParent=1;resizeParentMax=0;resizeLast=0;collapsible=1;marginBottom=0;" parent="1" vertex="1"><mxGeometry x="300" y="130" width="160" height="100" as="geometry"/></mxCell><mxCell id="QdE7p_diFOwgZNPdNC6Q-12" value="- class : String&#10;" style="text;strokeColor=none;fillColor=none;align=left;verticalAlign=top;spacingLeft=4;spacingRight=4;overflow=hidden;rotatable=0;points=[[0,0.5],[1,0.5]];portConstraint=eastwest;" parent="QdE7p_diFOwgZNPdNC6Q-11" vertex="1"><mxGeometry y="26" width="160" height="34" as="geometry"/></mxCell><mxCell id="QdE7p_diFOwgZNPdNC6Q-13" value="" style="line;strokeWidth=1;fillColor=none;align=left;verticalAlign=middle;spacingTop=-1;spacingLeft=3;spacingRight=3;rotatable=0;labelPosition=right;points=[];portConstraint=eastwest;strokeColor=inherit;" parent="QdE7p_diFOwgZNPdNC6Q-11" vertex="1"><mxGeometry y="60" width="160" height="40" as="geometry"/></mxCell><mxCell id="QdE7p_diFOwgZNPdNC6Q-19" value="" style="endArrow=none;html=1;rounded=0;exitX=0.995;exitY=0.695;exitDx=0;exitDy=0;exitPerimeter=0;entryX=0;entryY=0.207;entryDx=0;entryDy=0;entryPerimeter=0;" parent="1" source="QdE7p_diFOwgZNPdNC6Q-12" target="QdE7p_diFOwgZNPdNC6Q-9" edge="1"><mxGeometry width="50" height="50" relative="1" as="geometry"><mxPoint x="400" y="180" as="sourcePoint"/><mxPoint x="450" y="130" as="targetPoint"/></mxGeometry></mxCell><mxCell id="QdE7p_diFOwgZNPdNC6Q-20" value="" style="endArrow=none;html=1;rounded=0;exitX=1.008;exitY=0.791;exitDx=0;exitDy=0;exitPerimeter=0;entryX=0.009;entryY=0.866;entryDx=0;entryDy=0;entryPerimeter=0;" parent="1" source="QdE7p_diFOwgZNPdNC6Q-2" target="QdE7p_diFOwgZNPdNC6Q-9" edge="1"><mxGeometry width="50" height="50" relative="1" as="geometry"><mxPoint x="400" y="180" as="sourcePoint"/><mxPoint x="450" y="130" as="targetPoint"/></mxGeometry></mxCell><mxCell id="QdE7p_diFOwgZNPdNC6Q-22" value="" style="endArrow=block;dashed=1;endFill=0;endSize=12;html=1;rounded=0;exitX=0.5;exitY=0;exitDx=0;exitDy=0;entryX=0.5;entryY=1;entryDx=0;entryDy=0;" parent="1" source="QdE7p_diFOwgZNPdNC6Q-11" target="QdE7p_diFOwgZNPdNC6Q-5" edge="1"><mxGeometry width="160" relative="1" as="geometry"><mxPoint x="320" y="100" as="sourcePoint"/><mxPoint x="480" y="100" as="targetPoint"/></mxGeometry></mxCell></root></mxGraphModel></diagram></mxfile>